<?xml version="1.0" encoding="utf-8"?>
<!-- Generator: Adobe Illustrator 25.0.0, SVG Export Plug-In . SVG Version: 6.00 Build 0)  -->
<svg version="1.1" id="Layer_1" xmlns="http://www.w3.org/2000/svg" xmlns:xlink="http://www.w3.org/1999/xlink" x="0px"
	y="0px" viewBox="0 0 512 512" style="enable-background:new 0 0 512 512;" xml:space="preserve">
	<style type="text/css">
		.st0 {
			fill: none;
		}

		.st1 {
			fill-rule: evenodd;
			clip-rule: evenodd;
			fill: #0dabe8;
		}
	</style>
	<path class="st0" d="M32.5,0.5h448c17.7,0,32,14.3,32,32v448c0,17.7-14.3,32-32,32h-448c-17.7,0-32-14.3-32-32v-448
	C0.5,14.8,14.8,0.5,32.5,0.5z" />
	<path class="st1" d="M20.1,17.1c59.5,112.3,142.5,202.4,232.3,292.7l3.6,3.8l0.1-0.1c21.8,21.9,44,43.9,66.4,66.3
	c-18.9,14.8-39,28.2-59.9,40.3l28.5,28.5l68.7-68.7c42.3,27.6,76.3,63.6,104.1,105.8l28.1-28.1c-42.5-27.5-79.7-60.2-106-103.9
	l68.9-68.9l-28.5-28.5c-11.1,21.9-24.4,42-39.5,60.6C343,273.1,300.3,231,256.7,191.4c-0.2-0.2-0.4-0.4-0.7-0.6
	C183.9,125.4,108.8,66.6,20.1,17.1L20.1,17.1z M491.9,17.1c-83,46.3-154.1,100.8-222,161.2l22.8,21.6l56.8-56.8l13.2,13.2
	l-56.4,56.4l24.6,23.2C392.8,168.9,448.6,98.9,491.9,17.1L491.9,17.1z M162.4,143L363,343.5c-4.4,4.4-8.8,8.8-13.4,13L149.2,156.2
	L162.4,143z M85.7,256.3l-28.5,28.5l68.9,68.9c-26.3,43.7-63.5,76.4-106,103.9l28.1,28.1C76,443.5,110,407.5,152.3,379.9l68.7,68.7
	l28.5-28.5c-21-12.1-41.1-25.5-59.9-40.3c17.9-17.8,35.6-35.4,53.2-53L218,301.1l-55.5,55.5c-4.6-4.2-9-8.6-13.4-13.1l55.8-55.8
	l-24.5-25.4c-18.3,17.9-36.6,36.1-55.2,54.6C110.2,298.3,96.8,278.1,85.7,256.3L85.7,256.3z" />
</svg>
