<?xml version="1.0" encoding="utf-8"?>
<!-- Generator: Adobe Illustrator 25.0.0, SVG Export Plug-In . SVG Version: 6.00 Build 0)  -->
<svg version="1.1" id="Layer_1" xmlns="http://www.w3.org/2000/svg" xmlns:xlink="http://www.w3.org/1999/xlink" x="0px"
	y="0px" viewBox="0 0 512 512" style="enable-background:new 0 0 512 512;" xml:space="preserve">
	<style type="text/css">
		.st0 {
			fill: none;
		}

		.st1 {
			fill: #0dabe8;
		}
	</style>
	<path class="st0" d="M32.5,0.5h448c17.7,0,32,14.3,32,32v448c0,17.7-14.3,32-32,32h-448c-17.7,0-32-14.3-32-32v-448
	C0.5,14.8,14.8,0.5,32.5,0.5z" />
	<path class="st1" d="M68.5,19.6v180.8c0,71.2,29.2,139.5,81.1,189.8l107.6,103.2l106.4-103.2c51.8-50.3,81-118.6,81-189.8V19.6H68.5
	z M406.9,202.2c0,56.9-23.3,111.6-64.8,151.9l-85.1,82.5l-86.1-82.5c-41.6-40.3-64.8-95-64.8-151.9V57.5h300.8v144.7L406.9,202.2
	L406.9,202.2z" />
	<path class="st1" d="M256.9,413.6l76.6-74.2c37.4-36.2,58.3-85.4,58.3-136.7V72.3H121.2v130.2c0,51.3,20.9,100.5,58.3,136.7
	L256.9,413.6z" />
</svg>